<mxfile host="app.diagrams.net" modified="2024-02-20T21:18:14.296Z" agent="Mozilla/5.0 (Windows NT 10.0; Win64; x64) AppleWebKit/537.36 (KHTML, like Gecko) Chrome/121.0.0.0 Safari/537.36" etag="wC9F0Y1h-a4F6ijIOyq5" version="23.1.1" type="github">
  <diagram name="Page-1" id="bqS-FZ6hRactcgp-9Ks-">
    <mxGraphModel dx="1114" dy="558" grid="1" gridSize="10" guides="1" tooltips="1" connect="1" arrows="1" fold="1" page="1" pageScale="1" pageWidth="827" pageHeight="1169" math="0" shadow="0">
      <root>
        <mxCell id="0" />
        <mxCell id="1" parent="0" />
        <mxCell id="y6TTsM0xGEVt4BT4Crah-1" value="Server Creation Module" style="swimlane;whiteSpace=wrap;html=1;startSize=40;" parent="1" vertex="1">
          <mxGeometry x="160" y="150" width="560" height="320" as="geometry" />
        </mxCell>
        <mxCell id="y6TTsM0xGEVt4BT4Crah-2" value="Provide Server Name" style="ellipse;whiteSpace=wrap;html=1;" parent="y6TTsM0xGEVt4BT4Crah-1" vertex="1">
          <mxGeometry x="40" y="220" width="200" height="40" as="geometry" />
        </mxCell>
        <mxCell id="y6TTsM0xGEVt4BT4Crah-3" value="Provide Server Image" style="ellipse;whiteSpace=wrap;html=1;" parent="y6TTsM0xGEVt4BT4Crah-1" vertex="1">
          <mxGeometry x="40" y="80" width="200" height="40" as="geometry" />
        </mxCell>
        <mxCell id="y6TTsM0xGEVt4BT4Crah-4" value="Verfiy Details" style="ellipse;whiteSpace=wrap;html=1;" parent="y6TTsM0xGEVt4BT4Crah-1" vertex="1">
          <mxGeometry x="310" y="150" width="200" height="40" as="geometry" />
        </mxCell>
        <mxCell id="y6TTsM0xGEVt4BT4Crah-15" value="" style="edgeStyle=none;orthogonalLoop=1;jettySize=auto;html=1;rounded=0;exitX=1;exitY=0.5;exitDx=0;exitDy=0;entryX=0.5;entryY=0;entryDx=0;entryDy=0;dashed=1;" parent="y6TTsM0xGEVt4BT4Crah-1" source="y6TTsM0xGEVt4BT4Crah-3" target="y6TTsM0xGEVt4BT4Crah-4" edge="1">
          <mxGeometry width="100" relative="1" as="geometry">
            <mxPoint x="330" y="120" as="sourcePoint" />
            <mxPoint x="430" y="120" as="targetPoint" />
            <Array as="points" />
          </mxGeometry>
        </mxCell>
        <mxCell id="874h4bqVdTH8mnI3KiV0-4" value="&amp;lt;&amp;lt;INCLUDE&amp;gt;&amp;gt;" style="edgeLabel;html=1;align=center;verticalAlign=middle;resizable=0;points=[];" vertex="1" connectable="0" parent="y6TTsM0xGEVt4BT4Crah-15">
          <mxGeometry x="-0.2241" y="-3" relative="1" as="geometry">
            <mxPoint as="offset" />
          </mxGeometry>
        </mxCell>
        <mxCell id="y6TTsM0xGEVt4BT4Crah-16" value="" style="edgeStyle=none;orthogonalLoop=1;jettySize=auto;html=1;rounded=0;exitX=1;exitY=0.5;exitDx=0;exitDy=0;entryX=0.5;entryY=1;entryDx=0;entryDy=0;dashed=1;" parent="y6TTsM0xGEVt4BT4Crah-1" source="y6TTsM0xGEVt4BT4Crah-2" target="y6TTsM0xGEVt4BT4Crah-4" edge="1">
          <mxGeometry width="100" relative="1" as="geometry">
            <mxPoint x="340" y="140" as="sourcePoint" />
            <mxPoint x="440" y="140" as="targetPoint" />
            <Array as="points" />
          </mxGeometry>
        </mxCell>
        <mxCell id="874h4bqVdTH8mnI3KiV0-3" value="&amp;lt;&amp;lt;INCLUDE&amp;gt;&amp;gt;" style="edgeLabel;html=1;align=center;verticalAlign=middle;resizable=0;points=[];" vertex="1" connectable="0" parent="y6TTsM0xGEVt4BT4Crah-16">
          <mxGeometry x="-0.224" y="4" relative="1" as="geometry">
            <mxPoint as="offset" />
          </mxGeometry>
        </mxCell>
        <mxCell id="874h4bqVdTH8mnI3KiV0-10" value="Create Serevr" style="ellipse;whiteSpace=wrap;html=1;" vertex="1" parent="y6TTsM0xGEVt4BT4Crah-1">
          <mxGeometry x="340" y="260" width="200" height="40" as="geometry" />
        </mxCell>
        <mxCell id="874h4bqVdTH8mnI3KiV0-14" value="" style="endArrow=classic;html=1;rounded=0;exitX=0.695;exitY=0.95;exitDx=0;exitDy=0;entryX=0.5;entryY=0;entryDx=0;entryDy=0;dashed=1;exitPerimeter=0;" edge="1" parent="y6TTsM0xGEVt4BT4Crah-1" source="y6TTsM0xGEVt4BT4Crah-4" target="874h4bqVdTH8mnI3KiV0-10">
          <mxGeometry width="50" height="50" relative="1" as="geometry">
            <mxPoint x="230" y="170" as="sourcePoint" />
            <mxPoint x="280" y="120" as="targetPoint" />
          </mxGeometry>
        </mxCell>
        <mxCell id="874h4bqVdTH8mnI3KiV0-15" value="&amp;lt;&amp;lt;INCLUDE&amp;gt;&amp;gt;" style="edgeLabel;html=1;align=center;verticalAlign=middle;resizable=0;points=[];" vertex="1" connectable="0" parent="874h4bqVdTH8mnI3KiV0-14">
          <mxGeometry x="0.0158" y="1" relative="1" as="geometry">
            <mxPoint as="offset" />
          </mxGeometry>
        </mxCell>
        <mxCell id="y6TTsM0xGEVt4BT4Crah-5" value="User" style="shape=umlActor;verticalLabelPosition=bottom;verticalAlign=top;html=1;outlineConnect=0;" parent="1" vertex="1">
          <mxGeometry x="90" y="301" width="30" height="60" as="geometry" />
        </mxCell>
        <mxCell id="874h4bqVdTH8mnI3KiV0-1" value="" style="endArrow=none;html=1;rounded=0;entryX=0;entryY=0.5;entryDx=0;entryDy=0;" edge="1" parent="1" target="y6TTsM0xGEVt4BT4Crah-3">
          <mxGeometry width="50" height="50" relative="1" as="geometry">
            <mxPoint x="140" y="310" as="sourcePoint" />
            <mxPoint x="440" y="270" as="targetPoint" />
          </mxGeometry>
        </mxCell>
        <mxCell id="874h4bqVdTH8mnI3KiV0-2" value="" style="endArrow=none;html=1;rounded=0;entryX=0;entryY=0.5;entryDx=0;entryDy=0;" edge="1" parent="1" target="y6TTsM0xGEVt4BT4Crah-2">
          <mxGeometry width="50" height="50" relative="1" as="geometry">
            <mxPoint x="130" y="360" as="sourcePoint" />
            <mxPoint x="440" y="270" as="targetPoint" />
          </mxGeometry>
        </mxCell>
        <mxCell id="874h4bqVdTH8mnI3KiV0-5" value="Third Party&amp;nbsp;&lt;br&gt;Authenticator" style="shape=umlActor;verticalLabelPosition=bottom;verticalAlign=top;html=1;outlineConnect=0;" vertex="1" parent="1">
          <mxGeometry x="770" y="290" width="30" height="60" as="geometry" />
        </mxCell>
        <mxCell id="874h4bqVdTH8mnI3KiV0-6" value="" style="endArrow=none;html=1;rounded=0;exitX=1;exitY=0.5;exitDx=0;exitDy=0;" edge="1" parent="1" source="y6TTsM0xGEVt4BT4Crah-4">
          <mxGeometry width="50" height="50" relative="1" as="geometry">
            <mxPoint x="390" y="320" as="sourcePoint" />
            <mxPoint x="760" y="320" as="targetPoint" />
          </mxGeometry>
        </mxCell>
      </root>
    </mxGraphModel>
  </diagram>
</mxfile>
